PathFileType	4	(X/Y/Z)	C:\Users\Biomechanik\SynologyDrive\AlexP\Athlete_03\Athlete_3_25_03_31\Squat_35kg_01\marker_experimental.trc
DataRate	CameraRate	NumFrames	NumMarkers	Units	OrigDataRate	OrigDataStartFrame	OrigNumFrames
200.000000	200.000000	4	55	mm	200.000000	80	646
Frame#	Time	BL			BR			GLAB			RFHD			LFHD			C7			T6			SPINMOL			SPINM2			SPINM3			T12			BELTOL			BELT2			BELT3			SACROL			SACR2			SACR3			LTHOL			LTH2			LTH3			LSHAOL			LSHA2			LSHA3			LHEE			LTOE			LM5			RTHOL			RTH2			RTH3			RSHAOL			RSHA2			RSHA3			RHEE			RTOE			RM5			STRN			XIPH			LACR			LUAOL			LUA2			LUA3			LLAOL			LLA2			LLA3			LWRR			LWRU			RACR			RUAOL			RUA2			RUA3			RLAOL			RLA2			RLA3			RWRR			RWRU			
		X1	Y1	Z1	X2	Y2	Z2	X3	Y3	Z3	X4	Y4	Z4	X5	Y5	Z5	X6	Y6	Z6	X7	Y7	Z7	X8	Y8	Z8	X9	Y9	Z9	X10	Y10	Z10	X11	Y11	Z11	X12	Y12	Z12	X13	Y13	Z13	X14	Y14	Z14	X15	Y15	Z15	X16	Y16	Z16	X17	Y17	Z17	X18	Y18	Z18	X19	Y19	Z19	X20	Y20	Z20	X21	Y21	Z21	X22	Y22	Z22	X23	Y23	Z23	X24	Y24	Z24	X25	Y25	Z25	X26	Y26	Z26	X27	Y27	Z27	X28	Y28	Z28	X29	Y29	Z29	X30	Y30	Z30	X31	Y31	Z31	X32	Y32	Z32	X33	Y33	Z33	X34	Y34	Z34	X35	Y35	Z35	X36	Y36	Z36	X37	Y37	Z37	X38	Y38	Z38	X39	Y39	Z39	X40	Y40	Z40	X41	Y41	Z41	X42	Y42	Z42	X43	Y43	Z43	X44	Y44	Z44	X45	Y45	Z45	X46	Y46	Z46	X47	Y47	Z47	X48	Y48	Z48	X49	Y49	Z49	X50	Y50	Z50	X51	Y51	Z51	X52	Y52	Z52	X53	Y53	Z53	X54	Y54	Z54	X55	Y55	Z55	

81	0.4	162.753662109375	1354.956298828125	-2213.39453125	168.0733642578125	1349.263671875	-192.9706573486327	459.8200378417969	1535.197998046875	-1172.01611328125	408.67236328125	1563.233642578125	-1110.603759765625	420.5962219238281	1561.0048828125	-1246.047973632812	216.7326354980469	1418.125366210938	-1184.176025390625	111.1155853271484	1276.128173828125	-1195.760986328125	92.47013854980469	1242.337158203125	-1214.417724609375	82.53456878662109	1235.2138671875	-1165.64697265625	75.98914337158203	1179.69091796875	-1200.92529296875	68.24026489257812	1108.347412109375	-1201.177490234375	43.34757232666016	1068.574951171875	-1218.0537109375	42.84665679931641	1063.763305664062	-1168.087646484375	31.99635124206543	1006.078247070313	-1199.8291015625	14.29193782806396	928.6129150390626	-1226.586303710938	14.22939395904541	926.9131469726564	-1174.967895507812	14.21917915344238	866.4542236328126	-1202.656372070312	105.5650405883789	677.5103759765626	-1424.642456054688	64.76079559326172	614.3046875000001	-1398.397705078125	107.7697448730469	615.6646728515626	-1424.546142578125	96.31180572509766	331.9905395507814	-1510.938598632812	57.02161407470703	262.750457763672	-1508.5107421875	104.3294143676758	272.1276245117189	-1524.150756835938	72.09609985351562	67.02394104003915	-1492.967407226562	282.7890930175781	50.4236717224122	-1543.806274414062	217.5341949462891	25.1934871673585	-1632.851684570312	70.86272430419922	685.0929565429689	-988.1161499023438	117.9767074584961	637.5994873046876	-944.5515747070312	80.58625793457031	625.5173950195314	-975.2659912109375	50.25626373291016	346.8327331542969	-894.3809814453125	85.73394775390625	284.7779235839844	-861.4795532226562	44.5416374206543	284.8045959472657	-889.5364990234375	52.58959579467773	61.34332656860357	-914.3706665039062	251.0749359130859	48.07738494873052	-835.679931640625	169.6138305664062	36.05649566650396	-756.0167846679688	348.7569885253906	1275.908203125	-1187.100341796875	336.7138671875	1132.803833007812	-1185.71142578125	244.4058990478516	1384.282104492188	-1343.771850585938	121.8882064819336	1285.653930664062	-1430.116088867188	71.52187347412109	1245.095092773438	-1418.043579101562	98.54194641113281	1232.109741210938	-1459.44189453125	56.37987518310547	1173.016479492188	-1529.37060546875	121.0638122558594	1160.951293945312	-1574.006591796875	98.61756896972656	1205.229736328125	-1559.46875	160.4777984619141	1278.343139648438	-1602.154174804688	188.0787658691406	1297.521850585938	-1529.729614257812	249.3441314697266	1380.271118164062	-1033.781982421875	129.32763671875	1283.399291992188	-958.1143188476561	96.28619384765625	1233.228881835938	-929.2468872070311	78.225341796875	1245.945434570312	-976.6683349609374	68.34115600585938	1160.690795898438	-842.1403808593749	84.56126403808594	1236.905151367188	-824.2377319335936	109.5793380737305	1195.684814453125	-810.7172241210936	154.9721374511719	1271.331176757812	-778.8988037109374	195.9482116699219	1299.189819335938	-842.9171752929686	
82	0.405	162.8057861328125	1355.033081054688	-2213.4072265625	168.1128234863281	1349.355712890625	-192.9815063476562	459.6854248046875	1535.292358398438	-1171.948852539062	408.5130615234375	1563.256225585938	-1110.541259765625	420.4534301757812	1561.107788085938	-1245.96826171875	216.7679748535156	1418.145751953125	-1184.184814453125	111.147331237793	1276.136962890625	-1195.78955078125	92.48799133300781	1242.343139648438	-1214.443603515625	82.53616333007812	1235.235473632812	-1165.679565429688	76.01409149169922	1179.693115234375	-1200.943237304688	68.34176635742188	1108.3232421875	-1201.185180664062	43.42595291137695	1068.547973632812	-1218.079345703125	42.88771057128906	1063.750244140625	-1168.093505859375	32.03684616088867	1006.0703125	-1199.841796875	14.3192720413208	928.6129150390626	-1226.618774414062	14.25340175628662	926.9164428710939	-1174.998779296875	14.27455139160156	866.4522094726564	-1202.692260742188	105.6465225219727	677.5277099609376	-1424.646240234375	64.79376983642578	614.3258056640626	-1398.438720703125	107.811164855957	615.6816406250001	-1424.56982421875	96.32910919189453	331.9969787597657	-1510.941040039062	57.03686141967773	262.7545166015626	-1508.513061523438	104.3430633544922	272.1329956054689	-1524.15380859375	72.09743499755859	67.02709197998055	-1492.963500976562	282.7906494140625	50.4230613708497	-1543.803344726562	217.5348968505859	25.19582366943369	-1632.84716796875	70.86316680908203	685.0887451171876	-988.14892578125	117.9691314697266	637.5991210937501	-944.5711059570312	80.58902740478516	625.5155029296876	-975.2958984375	50.26480484008789	346.8320007324219	-894.3993530273438	85.73717498779297	284.7794189453126	-861.4918823242188	44.55028533935547	284.8079833984376	-889.555908203125	52.59712600708008	61.34851837158209	-914.3789672851562	251.0763244628906	48.07731246948247	-835.6813354492188	169.6155548095703	36.05821228027349	-756.0185546875	348.7435302734375	1275.86572265625	-1187.117919921875	336.6850280761719	1132.76318359375	-1185.719482421875	244.4514617919922	1384.279296875	-1343.784057617188	121.9015274047852	1285.677734375	-1430.120971679688	71.53305816650391	1245.12451171875	-1418.043212890625	98.54318237304688	1232.14208984375	-1459.45263671875	56.39353942871094	1173.057250976562	-1529.382690429688	121.052131652832	1160.992309570312	-1574.0361328125	98.65500640869141	1205.260986328125	-1559.47021484375	160.4911346435547	1278.378784179688	-1602.170288085938	188.0965423583984	1297.54150390625	-1529.742919921875	249.3884429931641	1380.257446289062	-1033.807250976562	129.339599609375	1283.411376953125	-958.1342773437499	96.30051422119141	1233.249633789062	-929.2566528320311	78.24345397949219	1245.957397460938	-976.6829223632811	68.35410308837891	1160.72802734375	-842.1285400390624	84.57468414306641	1236.94580078125	-824.2429809570311	109.6017456054688	1195.729370117188	-810.7105102539061	154.9909210205078	1271.377685546875	-778.9075317382811	195.9759826660156	1299.2255859375	-842.9310913085936	
83	0.41	162.8573913574219	1355.119018554688	-2213.42041015625	168.154052734375	1349.4599609375	-192.992706298828	459.5550231933594	1535.382934570312	-1171.8818359375	408.3576049804688	1563.276733398438	-1110.48193359375	420.3170776367188	1561.208984375	-1245.893188476562	216.7996673583984	1418.169311523438	-1184.194702148438	111.1749496459961	1276.144653320312	-1195.818237304688	92.50205993652344	1242.347900390625	-1214.469970703125	82.53508758544922	1235.25537109375	-1165.713989257812	76.03543090820312	1179.693969726562	-1200.962158203125	68.43775177001953	1108.300170898438	-1201.1943359375	43.5003776550293	1068.523315429688	-1218.106079101562	42.92659378051758	1063.739379882812	-1168.10107421875	32.0760383605957	1006.062866210938	-1199.854736328125	14.34423351287842	928.6142578125001	-1226.650390625	14.27436923980713	926.9208374023439	-1175.02880859375	14.3265209197998	866.4524536132814	-1202.726928710938	105.7266998291016	677.5418701171876	-1424.6494140625	64.82863616943359	614.3453979492189	-1398.475952148438	107.8497772216797	615.6997680664064	-1424.593383789062	96.34621429443359	332.0039062500001	-1510.94384765625	57.05260467529297	262.7588806152345	-1508.5146484375	104.357177734375	272.1383361816407	-1524.156860351562	72.09899139404297	67.03077697753915	-1492.958862304688	282.7925720214844	50.42238616943369	-1543.80029296875	217.5355834960938	25.19847106933604	-1632.84228515625	70.86367797851562	685.0842285156251	-988.1815185546875	117.9621963500977	637.5994873046876	-944.5905151367188	80.59262847900391	625.5134277343751	-975.3257446289062	50.27663803100586	346.8316040039063	-894.4158935546875	85.74370574951172	284.7808532714844	-861.503173828125	44.56178283691406	284.8118896484376	-889.5736694335938	52.60538101196289	61.35447311401373	-914.3880615234375	251.0778350830078	48.07701110839849	-835.68310546875	169.617431640625	36.06010437011724	-756.0205688476562	348.7279968261719	1275.828979492188	-1187.136108398438	336.6554565429688	1132.727905273438	-1185.727172851562	244.4966430664062	1384.281494140625	-1343.796142578125	121.9168243408203	1285.70361328125	-1430.129028320312	71.54739379882812	1245.153930664062	-1418.047485351562	98.54863739013672	1232.1796875	-1459.469116210938	56.41659164428711	1173.099609375	-1529.39990234375	121.0478591918945	1161.0390625	-1574.071899414062	98.74065399169922	1205.285522460938	-1559.460205078125	160.5070037841797	1278.422729492188	-1602.189086914062	188.1161346435547	1297.568237304688	-1529.758178710938	249.4323272705078	1380.251342773438	-1033.830810546875	129.3512725830078	1283.428344726562	-958.1530761718749	96.31644439697266	1233.274291992188	-929.2628173828124	78.26290130615234	1245.971435546875	-976.6941528320311	68.37235260009766	1160.769897460938	-842.1114501953124	84.58794403076172	1236.992797851562	-824.2449951171874	109.6290283203125	1195.781372070312	-810.6987915039061	155.0118713378906	1271.433715820312	-778.9143066406249	196.0065460205078	1299.268920898438	-842.9432983398436	
84	0.415	162.9082336425781	1355.2119140625	-2213.433837890625	168.1967926025391	1349.574096679688	-193.0043945312499	459.4289855957031	1535.469848632812	-1171.81494140625	408.2060852050781	1563.295532226562	-1110.425170898438	420.1871337890625	1561.30859375	-1245.822998046875	216.828369140625	1418.195556640625	-1184.20556640625	111.1987762451172	1276.1513671875	-1195.847045898438	92.51284027099609	1242.351684570312	-1214.496704101562	82.53152465820312	1235.273559570312	-1165.749267578125	76.05339813232422	1179.69384765625	-1200.981811523438	68.52821350097656	1108.278686523438	-1201.204833984375	43.57000732421875	1068.501342773438	-1218.133422851562	42.96330642700195	1063.731201171875	-1168.110107421875	32.11414337158203	1006.055725097656	-1199.86767578125	14.36573600769043	928.6162719726564	-1226.681030273438	14.29168033599854	926.9254150390626	-1175.058227539062	14.37481689453125	866.4542846679689	-1202.76025390625	105.8047485351562	677.5529174804689	-1424.652099609375	64.86591339111328	614.3632812500001	-1398.5087890625	107.885498046875	615.7190551757814	-1424.616577148438	96.36357879638672	332.0113220214845	-1510.947021484375	57.06927108764648	262.763641357422	-1508.515625	104.3721160888672	272.1436157226564	-1524.159790039062	72.10091400146484	67.03504943847665	-1492.953247070312	282.794921875	50.42154312133798	-1543.797119140625	217.5362701416016	25.20146179199229	-1632.8369140625	70.86427307128906	685.0794677734376	-988.2135620117188	117.9561614990234	637.6005859375001	-944.6094970703125	80.59709930419922	625.5111083984376	-975.355224609375	50.29239654541016	346.8315429687501	-894.430419921875	85.75422668457031	284.7822265625001	-861.5133056640625	44.57666397094727	284.8163146972657	-889.5894165039062	52.61442184448242	61.36122131347662	-914.3980712890625	251.0794982910156	48.07636260986333	-835.685302734375	169.6194305419922	36.06212997436528	-756.0227661132812	348.7109069824219	1275.797485351562	-1187.15478515625	336.6254272460938	1132.697875976562	-1185.734375	244.5416717529297	1384.288208007812	-1343.80810546875	121.9342803955078	1285.73095703125	-1430.140014648438	71.56490325927734	1245.18310546875	-1418.05615234375	98.55815124511719	1232.22216796875	-1459.490966796875	56.44791412353516	1173.14306640625	-1529.421752929688	121.050666809082	1161.0908203125	-1574.113403320312	98.86814117431641	1205.304321289062	-1559.440673828125	160.5253295898438	1278.473754882812	-1602.210571289062	188.1376190185547	1297.60107421875	-1529.775390625	249.4761047363281	1380.252197265625	-1033.852172851562	129.3632202148438	1283.449340820312	-958.1705932617186	96.33434295654297	1233.302124023438	-929.2656249999999	78.28386688232422	1245.987182617188	-976.7020874023436	68.39584350585938	1160.815673828125	-842.0896606445311	84.59888458251953	1237.045166015625	-824.2446289062499	109.6610641479492	1195.839721679688	-810.6826782226561	155.0354309082031	1271.497802734375	-778.9193725585936	196.0399780273438	1299.318603515625	-842.9540405273436	
